<?xml version="1.0" encoding="UTF-8"?><svg id="b" xmlns="http://www.w3.org/2000/svg" xmlns:xlink="http://www.w3.org/1999/xlink" viewBox="0 0 1455.33 368.37"><defs><style>.ar{fill:url(#h);stroke:url(#i);}.ar,.as,.at,.au,.av,.aw,.ax,.ay,.az,.ba,.bb,.bc{stroke-miterlimit:10;stroke-width:3.6px;}.as{fill:url(#q);stroke:url(#r);}.at{fill:url(#w);stroke:url(#x);}.au{fill:url(#t);stroke:url(#u);}.av{fill:url(#k);stroke:url(#l);}.aw{fill:url(#n);stroke:url(#o);}.ax{fill:url(#e);stroke:url(#f);}.ay{fill:url(#z);stroke:url(#aa);}.bd{fill:#e29b2e;stroke-width:0px;}.az{fill:url(#aj);stroke:url(#ak);}.ba{fill:url(#ac);stroke:url(#ad);}.bb{fill:url(#ag);stroke:url(#ah);}.bc{fill:url(#am);stroke:url(#an);}</style><linearGradient id="e" x1="118.39" y1="2.45" x2="118.39" y2="270.96" gradientUnits="userSpaceOnUse"><stop offset=".56" stop-color="#fff"/><stop offset="1" stop-color="#97a6cc"/></linearGradient><linearGradient id="f" x1="118.4" y1="0" x2="118.4" y2="273.03" gradientUnits="userSpaceOnUse"><stop offset=".1" stop-color="#eecb9b"/><stop offset="1" stop-color="#b17221"/></linearGradient><linearGradient id="h" x1="323.68" y1="27.15" x2="323.68" y2="241.7" xlink:href="#e"/><linearGradient id="i" x1="323.67" y1="25.12" x2="323.67" y2="243.73" xlink:href="#f"/><linearGradient id="k" x1="489.26" y1="38.95" x2="489.26" y2="222.35" xlink:href="#e"/><linearGradient id="l" x1="489.26" y1="37.01" x2="489.26" y2="224.29" xlink:href="#f"/><linearGradient id="n" x1="648.2" y1="44.24" x2="648.2" y2="210.2" xlink:href="#e"/><linearGradient id="o" x1="648.2" y1="42.44" x2="648.2" y2="212" xlink:href="#f"/><linearGradient id="q" x1="812.9" y1="43.24" x2="812.9" y2="209.46" xlink:href="#e"/><linearGradient id="r" x1="812.9" y1="41.44" x2="812.9" y2="211.28" xlink:href="#f"/><linearGradient id="t" x1="975.09" y1="41.69" x2="975.09" y2="221.22" xlink:href="#e"/><linearGradient id="u" x1="975.1" y1="39.85" x2="975.1" y2="223.2" xlink:href="#f"/><linearGradient id="w" x1="1093.57" y1="34.46" x2="1093.57" y2="229.09" xlink:href="#e"/><linearGradient id="x" x1="1093.57" y1="32.56" x2="1093.57" y2="231.1" xlink:href="#f"/><linearGradient id="z" x1="1219.88" y1="22.36" x2="1219.88" y2="251.46" xlink:href="#e"/><linearGradient id="aa" x1="1219.88" y1="20.36" x2="1219.88" y2="253.55" xlink:href="#f"/><linearGradient id="ac" x1="1379.91" y1="5.8" x2="1379.91" y2="270.1" xlink:href="#e"/><linearGradient id="ad" x1="1379.91" y1="3.98" x2="1379.91" y2="271.9" xlink:href="#f"/><linearGradient id="ag" x1="553.16" y1="361.15" x2="553.16" y2="245.43" xlink:href="#e"/><linearGradient id="ah" x1="553.16" y1="243.57" x2="553.16" y2="363.12" xlink:href="#f"/><linearGradient id="aj" x1="693.08" y1="366.57" x2="693.08" y2="241.21" xlink:href="#e"/><linearGradient id="ak" x1="693.08" y1="239.38" x2="693.08" y2="368.37" xlink:href="#f"/><linearGradient id="am" x1="863.91" y1="366.45" x2="863.91" y2="243.57" xlink:href="#e"/><linearGradient id="an" x1="863.91" y1="241.77" x2="863.91" y2="368.25" xlink:href="#f"/></defs><g id="c"><g id="d"><path id="g" class="ax" d="M231.82,68.36l3.05-39.63c-25.84-2.21-59.73-3.71-69.7-5.57v47.7l6.67,6.67-6.37,73.15-21.33-128.07-42.07-4.81-18.67,133.78-8.89-86.56,7.26-7.26V15.53S18.89,7.53,1.9,2.45l1.91,47.52s5.48,6.4,7.31,16.45c1.83,10.05,29.24,204.54,29.24,204.54l56.66-8.97,21.02-116.98,18.28,108.75,59.4-8.23s28.25-157.77,29.87-164.25l6.22-12.94Z"/><path id="j" class="ar" d="M406.49,193.59l-8.74-8.74v-28.96c0-4.72-6.52-18-26.96-18,20.44-7.7,29.04-29.41,29.04-53.7s-13.63-36.74-37.93-43.26c-15.28-4.1-72.67-7.89-119.95-13.77l-1.43,43.43c4.72,3.76,9.1,8.02,9.1,8.02.54,8.63.54,117.77.54,117.77l-8.09,11.87,1.08,33.46,77.17-9.71v-32.92l-8.1-7.02v-33.68l12.95-.54s9.71,4.32,9.71,14.03,1.08,54.92,1.08,56.54c2.99-.33,37.13-3.05,70.88-5.64l-.34-29.17ZM315.4,114.3v-36.27s24.44-3.38,24.44,14.29.15,4.76.15,9.38c0,15.68-24.59,12.6-24.59,12.6Z"/><path id="m" class="av" d="M506.94,163.57c0,21.98-15.13,19.97-21.78,19.97v-37.64h38.92v-29.24h-38.92v-27.22c24.6,0,21.78.57,21.78.57h58.28v-18.5s.01-26.96.01-26.96c0,0-110.8-2.56-150.52-5.59v30.44l6.81,6.81v108.52l-8.44,8.44.34,29.17c30.47-2.33,60.62-4.55,67.28-4.81,14.03-.54,84.73-4.86,84.73-4.86v-14.57l-.54-34.55c-29.79,0-44.77.01-57.96.01Z"/><path id="p" class="aw" d="M720.06,59.57s-26.37-15.33-85.93-15.33c-51.06,0-60.96,20.73-62.74,26.07v34.04c5.45,29.29,68.67,51.06,79.28,52.8,11.09,1.82,12.5,24.08-3.93,24.08-19.46,0-17.44-17.44-17.44-17.44h-57.9v34.65c1.85,1.17,19.34,11.76,45.28,11.76h49.34c17.27,0,59.01-10.25,59.01-45.33,0-51.17-90.91-51.98-90.91-80.5,0-6,6.19-11.1,13.74-11.1s15.65,5.78,15.65,18.73h56.12l.43-32.42Z"/><path id="s" class="as" d="M900.18,43.25c-28.41-.04-51.17,0-75.46.25-66.85.67-98.67,1.3-98.67,1.3v9.78l-.43,41.42v17.27h46.12v-26.44s4.07-5.94,8.93-5.94v92.93l-7.29,7.29v27.48l78.04.88-.06-27-7.29-7.29v-95.9c8.38,0,11.46,7.12,11.46,7.12v26.37h44.44l.2-69.51Z"/><path id="v" class="au" d="M1049.57,221.22c-11.35-1.07-20.88-1.98-28.81-2.5-31.7-2.07-120.15-7.11-120.15-7.11v-24.15l6.37-6.37v-45.33l.2-91.51c39.24-1.86,70.91-2.56,70.91-2.56v29l-8.3,7.11v106.26h16.89l4.74-6.81v-33.48h57.78v50.96l.37,26.5Z"/><path id="y" class="at" d="M1055.2,194.72l8.59-10.07v-109.93l-7.41-7.11v-28.74l75.48-4.41v30.74l-6.59,6.59v118.04l6.67,6.67v32.59s-42.33-4.67-76.37-7.88l-.37-26.5Z"/><path id="ab" class="ay" d="M1139.69,34.27l68.82-4.15,35.39,100.67v-55.51l-7.87-8.71V28.91l64.05-6.55v39.33l-5.9,9.27v180.51l-60.39-9.27-37.92-90.45v43.26l7.3,9.27v33.99s-64.05-8.43-63.2-8.43,0-31.74,0-31.74l6.88-6.88v-113.74l-7.16-6.74v-36.46Z"/><path id="ae" class="ba" d="M1453.53,5.8v94.55l-60.06,2.71v-28.45s-1.16-8.38-12.05-8.38-12.27,12.76-12.27,12.76v125.15s0,9.57,12.51,9.57,12.27-12.27,12.27-12.27v-26.5h-11.29v-49.08h70.89v143.69s-147.21,11.89-147.21-73.75.69-87.61,0-118.28c-1.57-69.65,147.21-71.71,147.21-71.71Z"/></g><g id="af"><path id="ai" class="bb" d="M511.87,247.98c0,.75-.44,18.82,0,19.23.73.68,7.63,7.43,7.63,7.43v56.37l-7.23,5.42v17.28l82.37,7.43v-20.49s-8.04-9.04-7.43-9.04,0-59.26,0-59.26l7.43-6.23v-20.69l-82.77,2.55Z"/><polygon id="al" class="az" points="605.09 245.03 680.03 241.81 718.2 297.46 718.6 272.15 710.36 262.71 710.36 241.21 781.08 242.42 781.08 263.71 773.44 269.54 773.44 366.57 707.35 366.57 666.16 309.11 666.16 333.62 674.4 344.67 674.4 366.17 605.89 362.35 605.89 341.46 613.33 336.24 613.33 274.36 605.09 264.72 605.09 245.03"/><path id="ao" class="bc" d="M943.75,290.22h-66.71v-15s-.77-6.5-13.26-6.5-11.69,6.76-11.69,6.76v56.54s1.14,6.18,11.69,6.18,13.29-6.84,13.29-6.84v-18.63h65.01s-.15,23.51,0,32.12c.22,12.81-158.45,48.8-158.02-15.77.41-61.15,0-6.62,0-55.7,0-51.89,159.68-23.26,159.68-8.87,0,7.8-.72,25.7,0,25.7Z"/></g><rect id="ap" class="bd" x="983.62" y="287.97" width="310" height="19.64"/><rect id="aq" class="bd" x="162.57" y="294.66" width="310" height="19.64"/></g></svg>