<?xml version="1.0" encoding="UTF-8" standalone="no"?>
<!-- Created with Inkscape (http://www.inkscape.org/) -->

<svg
   version="1.1"
   id="svg2"
   width="1393.2267"
   height="219.33333"
   viewBox="0 0 1393.2267 219.33333"
   sodipodi:docname="FIGHTFUL_NO_TEXTURE.eps"
   xmlns:inkscape="http://www.inkscape.org/namespaces/inkscape"
   xmlns:sodipodi="http://sodipodi.sourceforge.net/DTD/sodipodi-0.dtd"
   xmlns="http://www.w3.org/2000/svg"
   xmlns:svg="http://www.w3.org/2000/svg">
  <defs
     id="defs6" />
  <sodipodi:namedview
     id="namedview4"
     pagecolor="#ffffff"
     bordercolor="#000000"
     borderopacity="0.25"
     inkscape:showpageshadow="2"
     inkscape:pageopacity="0.0"
     inkscape:pagecheckerboard="0"
     inkscape:deskcolor="#d1d1d1" />
  <g
     id="g8"
     inkscape:groupmode="layer"
     inkscape:label="ink_ext_XXXXXX"
     transform="matrix(1.3333333,0,0,-1.3333333,0,219.33333)">
    <g
       id="g10"
       transform="scale(0.1)">
      <path
         d="m 2033.82,1305.72 223.92,339.26 H 1171.03 V 1.51172 L 1635.16,703.297 v 221.281 h 146.37 l 210.74,318.612 h -357.11 v 62.53 z m -1809.89,0 h 398.656 v -62.53 H 265.473 L 476.215,924.578 H 622.586 V 703.297 L 1086.71,1.51172 V 1644.98 H 0.00390625 L 223.93,1305.72"
         style="fill:#0070bb;fill-opacity:1;fill-rule:nonzero;stroke:none"
         id="path12" />
      <path
         d="M 2489.61,1644.61 V 0.0585938 h 388.23 V 628.172 h 456.73 v 388.218 h -456.6 v 239.88 h 456.6 v 388.34 h -844.96"
         style="fill:#ffffff;fill-opacity:1;fill-rule:nonzero;stroke:none"
         id="path14" />
      <path
         d="m 3460.32,1644.61 h 388.35 V 0.0585938 H 3460.32 V 1644.61"
         style="fill:#ffffff;fill-opacity:1;fill-rule:nonzero;stroke:none"
         id="path16" />
      <path
         d="m 4042.66,1402.5 242.12,242.11 h 475.1 l 242.11,-242.11 v -374.73 h -388.36 v 228.5 H 4431.02 V 388.422 h 182.61 v 125.629 h -114.11 v 388.351 h 502.47 V 242.18 L 4759.88,0.0585938 h -475.1 L 4042.66,242.18 V 1402.5"
         style="fill:#ffffff;fill-opacity:1;fill-rule:nonzero;stroke:none"
         id="path18" />
      <path
         d="m 5196.11,1644.61 h 388.23 v -628.09 h 182.74 v 628.09 h 388.11 V 0.320313 H 5767.08 V 628.172 H 5584.34 V 0.320313 H 5196.11 V 1644.61"
         style="fill:#ffffff;fill-opacity:1;fill-rule:nonzero;stroke:none"
         id="path20" />
      <path
         d="m 6280.93,1256.27 v 388.34 H 7354.5 V 1256.27 H 7011.77 V 0.320313 H 6623.42 V 1256.14 l -342.49,0.13"
         style="fill:#ffffff;fill-opacity:1;fill-rule:nonzero;stroke:none"
         id="path22" />
      <path
         d="m 7480,1644.61 h 845.22 v -388.34 h -456.86 v -238.55 h 456.86 V 628.172 H 7868.36 V 0.0585938 H 7480 V 1644.61"
         style="fill:#ffffff;fill-opacity:1;fill-rule:nonzero;stroke:none"
         id="path24" />
      <path
         d="m 8450.7,1644.61 h 388.24 V 388.422 h 182.74 V 1645.04 h 388.36 V 242.18 L 9167.86,0 h -475.04 l -242.14,242.148 0.02,1402.462"
         style="fill:#ffffff;fill-opacity:1;fill-rule:nonzero;stroke:none"
         id="path26" />
      <path
         d="m 9604.03,1644.61 h 388.35 V 388.422 h 456.82 V 0 h -845.17 v 1644.61"
         style="fill:#ffffff;fill-opacity:1;fill-rule:nonzero;stroke:none"
         id="path28" />
    </g>
  </g>
</svg>
