<svg viewBox="0 0 823.77 146.2" xmlns="http://www.w3.org/2000/svg"><title>ITR Wrestling</title><path d="M50.52 0 0 146.2h55.64L106.37 0zM333.14 0H118.17l-17.14 49.32h65.2l-31.16 9.86-30.04 87.01h55.86l33.38-96.88h37.25l-33.47 96.88h55.64l14.24-41.23h20.03l10.24 41.23h55.64L342.27 99.4C393.45 77.65 380.99 0 333.14 0m-34.05 79.68h-22.25l11.79-34.15h17.58c20.47 0 20.92 34.15-7.12 34.15" fill="#fff"></path><g fill="#c30000"><path d="M482.51 33.56h8.76l-50.13 78.96h-13.2l21.69-62.58-39.34 62.58h-13.2l27.03-78.96h8.76l-26.08 72.86 45.63-72.86h10.41l-25.57 72.86 45.25-72.86ZM502.69 33.56h8.63l-38.58 78.96h-8.63zm7.51 34.53 11.29-23.1c.83-1.69 1.12-2.77.88-3.24-.24-.46-1.2-.7-2.9-.7h-20.44l3.66-7.49h22.98c3.38 0 5.5.82 6.34 2.47s.44 4.17-1.21 7.55l-12.65 25.9c-1.65 3.39-3.71 5.9-6.17 7.55s-5.38 2.47-8.76 2.47h-17.77l3.66-7.49h15.23c1.69 0 2.89-.25 3.61-.76.71-.51 1.46-1.57 2.25-3.17Zm-13.37 8.12h9.01l-4.66 36.31h-9.39l5.05-36.31ZM552.08 33.56h8.76l-38.58 78.96h-8.76zm-4.46 71.47-3.66 7.49h-24.88l3.66-7.49zm13.54-37.33-3.66 7.49h-20.18l3.66-7.49zm20.49-34.14-3.66 7.49H554l3.66-7.49zM582.93 101.09l10.54-21.58c.83-1.69 1.12-2.77.88-3.24-.24-.46-1.2-.7-2.9-.7h-8.63c-3.38 0-5.5-.83-6.34-2.48s-.44-4.17 1.22-7.55l10.73-21.96c1.65-3.38 3.71-5.9 6.17-7.55s5.38-2.47 8.76-2.47h11.17c3.38 0 5.5.82 6.34 2.47s.44 4.17-1.21 7.55l-5.96 12.19h-8.76l5.27-10.79c.83-1.69 1.12-2.77.88-3.24-.24-.46-1.2-.7-2.9-.7h-5.84c-1.61 0-2.78.23-3.51.7q-1.11.705-2.34 3.24l-9.37 19.17c-.79 1.61-1.05 2.67-.79 3.17.26.51 1.19.76 2.8.76h8.63c3.38 0 5.5.82 6.34 2.47.85 1.65.44 4.17-1.22 7.55l-11.91 24.37c-1.65 3.39-3.71 5.9-6.17 7.55s-5.38 2.48-8.76 2.48h-11.04c-3.39 0-5.5-.83-6.34-2.48s-.44-4.17 1.22-7.55l5.95-12.19h8.76l-5.27 10.79c-.79 1.61-1.05 2.67-.79 3.17.26.51 1.19.76 2.8.76h5.71c1.69 0 2.9-.25 3.61-.76s1.46-1.56 2.25-3.17ZM646.27 33.56h8.63l-38.58 78.96h-8.63zm21.32 0-3.66 7.49h-34.02l3.66-7.49zM678.38 33.56h8.63l-38.58 78.96h-8.63zm-33.37 78.96 3.66-7.49h21.58l-3.66 7.49zM717.23 33.56h8.63l-38.58 78.96h-8.63zM770.16 33.56h8l-38.58 78.96h-9.52l13.52-61.19-29.9 61.19h-8l38.58-78.96h10.16l-13.1 59.03zM797.84 44.98l-27.48 56.24c-.79 1.61-1.05 2.67-.79 3.17.26.51 1.19.76 2.8.76h3.68l-3.66 7.49h-6.35c-3.38 0-5.5-.83-6.34-2.48s-.44-4.17 1.22-7.55l28.84-59.03c1.65-3.38 3.71-5.9 6.17-7.55s5.38-2.47 8.76-2.47h7.24l-3.66 7.49h-4.57c-1.61 0-2.78.23-3.51.7q-1.11.705-2.34 3.24Zm-12.63 56.24 11.41-23.36h8.76l-12.09 24.75c-1.65 3.39-3.71 5.9-6.17 7.55s-5.38 2.48-8.76 2.48h-6.98l3.66-7.49h4.32c1.69 0 2.9-.25 3.61-.76s1.46-1.57 2.25-3.17Zm22.66-28.44-3.66 7.49H789.1l3.66-7.49zm-.39-17.13 5.21-10.66c.83-1.69 1.12-2.77.88-3.24-.24-.46-1.2-.7-2.9-.7h-4.32l3.66-7.49h6.98c3.38 0 5.5.82 6.34 2.47s.44 4.17-1.21 7.55l-5.89 12.06h-8.76Z"></path></g></svg>