<svg xmlns="http://www.w3.org/2000/svg" viewBox="0 0 1400 360"><defs><style>.cls-2{fill:#fff}.cls-4{fill:#13120d}</style></defs><g id="observer"><path d="M549.55 266.15c0 27-24.26 49.78-53.76 49.78H83.42c-29.5 0-53.42-22.77-53.42-49.78V96.91C30 69.9 53.92 48 83.42 48h412.37c29.5 0 53.76 21.9 53.76 48.91Z"/><path d="M321.13 48h228.42v267.93H321.13z" style="fill:#e52420"/><path d="M321 132.68a69.78 69.78 0 0 1 8.82 3.58c4.22 2.05 8.82 4.91 15.16 8.85 12.29 7.62 27.21 19.38 38.32 24.67a27.93 27.93 0 0 0 17.31 2.51c1.55-.39 2.91-.39 4.47-.88a45.65 45.65 0 0 0 11.6-5.65 60.93 60.93 0 0 0 8.94-7.66 127.58 127.58 0 0 0 12.25-14.56 104.55 104.55 0 0 0 9.19-15.19v68.17a101.69 101.69 0 0 1-19.84 24.11c-1.85 1.6-4.3 3.47-6.33 4.89a42.52 42.52 0 0 1-13.5 5.9 78.2 78.2 0 0 1-12.76 2.14c-6.12.48-16.3-1.15-26.28-5.9C356.5 222 345.14 213 335.93 206.5c-8.08-5.66-14.85-9.6-14.85-9.6ZM502.68 316l15.87-51.21h-65.08l-16.03 51.2M476.56 234.63h36.23l36.76-88.99V48h-34.97l-12.02 42.13-26 144.5zM303.59 246.65c0 26.83-15.23 48.74-34.86 48.74H82.51c-19.63 0-35.34-21.91-35.34-48.74v-130.2c0-26.83 15.71-48.34 35.34-48.34h186.22c19.63 0 34.86 21.51 34.86 48.34Z" class="cls-2"/><path d="M83.53 79.9h184.18c13.69 0 24.78 13 24.78 29.13v143.28c0 16.09-11.09 29.13-24.78 29.13H83.53c-13.69 0-24.78-13-24.78-29.13V109c0-16.06 11.09-29.1 24.78-29.1Z" style="fill-rule:evenodd"/><path d="M93.15 191.64 103.83 156l38.37 83.8 29.14-19.53-38.85-84.74 21.04-13.27L192.06 207l28.66-19.34-38.37-84.93 22.18-14.03 50.04 109.12-114.31 74.77-14.09-9.85-33.02-71.1z" class="cls-2"/><path d="m595.15 150.87-.06-45.39h16.69l-1.25 22.79v.59c-.18 3.32-.4 6.37-.66 9.13 0 0 .2-.8.61-2.27l1.86-6.71 6.42-23.53h16.43l-1.84 22.31c0 .2 0 .52-.07 1q-.46 5.4-.92 9.22l.28-1c1-3.55 1.93-6.51 2.7-8.85l7.18-22.67h18.38l-19.07 45.39h-19.36l1.45-23.2c.07-.89.16-2 .26-3.46s.23-3 .38-4.89c-.54 2.05-1.14 4.27-1.81 6.68-.17.64-.28 1-.33 1.22l-6.77 23.65ZM654.61 150.87 665 105.48h30.94q4.64 0 6.88 2.51t2.24 7.69q0 8.11-3.48 12.21t-10.3 4.1h-.89l11 18.88h-19.55l-5.12-10.44c-.36-.69-.7-1.44-1-2.25s-.72-1.8-1.16-3l-.15.8c-.56 2.9-.88 4.5-1 4.8l-2.29 10.08Zm21.75-23h5.43q3.62 0 5.24-1.45t1.63-4.61a3.3 3.3 0 0 0-.86-2.55 4.08 4.08 0 0 0-2.78-.79h-6.47ZM703.28 150.87l10.37-45.39h38.71L749 120h-22.26l-1 4.57H748l-2.24 9.72H723.5l-1 4.59h22.28l-2.77 12ZM750.37 138.23c3.31.55 6.21 1 8.69 1.21s4.69.37 6.64.37a20.87 20.87 0 0 0 6.33-.63 2.26 2.26 0 0 0 1.67-2.18 2 2 0 0 0-.56-1.6 2.78 2.78 0 0 0-1.86-.49c-1.24 0-2.57 0-4 .06h-.74q-7.35 0-10.27-2.33t-2.92-7.93a26.29 26.29 0 0 1 1.43-8.5 20.57 20.57 0 0 1 3.79-7 12.83 12.83 0 0 1 6.46-3.79 46.87 46.87 0 0 1 11.85-1.16q4.95 0 10.27.49t10.9 1.48l-3.24 14.4c-2.41-.55-4.66-1-6.76-1.27a44.29 44.29 0 0 0-5.84-.43c-4.1 0-6.89.24-8.39.72s-2.26 1.29-2.26 2.44a1.64 1.64 0 0 0 .64 1.51 8.3 8.3 0 0 0 3.41.4h6.27q5.52 0 8 2.18t2.51 6.92a26.57 26.57 0 0 1-1.2 8.17 16.09 16.09 0 0 1-3.33 6 13.54 13.54 0 0 1-6.36 3.82 37.06 37.06 0 0 1-10.4 1.19 112.83 112.83 0 0 1-11.49-.59q-5.85-.6-11.86-1.79ZM825.27 120.39l-6.92 30.48h-16.66l6.95-30.48H798l3.44-14.91h37.33l-3.39 14.91ZM832.84 150.87l10.37-45.39h16.62l-6.72 29.44H869l-3.67 16ZM869.72 150.87l10.36-45.39h16.71l-10.39 45.39ZM893.5 150.87l10.37-45.39h18.41l2.78 19.62c.05.4.15 1.24.3 2.53s.36 3 .62 5.17q.45-2.78 1.4-7c.1-.48.17-.82.23-1l4.39-19.32h16.12l-10.39 45.39h-18.2l-3.36-17.41q-.25-1.35-.6-3.27c-.23-1.28-.46-2.65-.7-4.1-.3 2.17-.79 4.68-1.45 7.54v.09l-4 17.15ZM985.39 149.53a95.15 95.15 0 0 1-10.25 2 66.81 66.81 0 0 1-9.21.67q-9.64 0-14.13-3.48t-4.48-11c0-1 .06-2.17.18-3.41s.29-2.61.53-4.11a67.08 67.08 0 0 1 2.08-8.9 36 36 0 0 1 2.78-6.75 24.25 24.25 0 0 1 4.42-5.86 13 13 0 0 1 5.13-3 35 35 0 0 1 5.63-1.16 50.45 50.45 0 0 1 6.47-.39 70.87 70.87 0 0 1 9.79.71 90 90 0 0 1 10.51 2.18l-3.13 13.72q-4.34-.6-7.59-.88t-5.78-.28a22.51 22.51 0 0 0-6.37.73 8.18 8.18 0 0 0-3.85 2.34 15 15 0 0 0-2.77 5.31 21.12 21.12 0 0 0-1.2 6.71 6.3 6.3 0 0 0 1.36 4.46 5.83 5.83 0 0 0 4.35 1.41h1.12l2.67-11.66h16.43ZM1016.46 137.36c0-1 0-2.11.16-3.25s.25-2.32.45-3.58a72.1 72.1 0 0 1 2.17-9.32 33.13 33.13 0 0 1 2.8-6.75 24.72 24.72 0 0 1 4.51-5.76 14.68 14.68 0 0 1 5.25-3.1 32.32 32.32 0 0 1 5.6-1.19 53.56 53.56 0 0 1 6.8-.39 43.62 43.62 0 0 1 9.43.86 19.18 19.18 0 0 1 6.54 2.75 9 9 0 0 1 3.31 4.47 22.22 22.22 0 0 1 1.07 7.49 43.57 43.57 0 0 1-.35 5.37 54 54 0 0 1-1 5.75 49.53 49.53 0 0 1-2.67 8.34 31.48 31.48 0 0 1-3.75 6.57 15.08 15.08 0 0 1-7.34 5.09q-4.64 1.56-12.7 1.56-11.09 0-15.66-3.4t-4.62-11.51ZM1041.7 120a6.2 6.2 0 0 0-3.24.83 6.06 6.06 0 0 0-2.28 2.46 25.23 25.23 0 0 0-2.14 5.86 25.49 25.49 0 0 0-.9 6.19 3.5 3.5 0 0 0 1.39 3 6.69 6.69 0 0 0 4 1 6.62 6.62 0 0 0 2.9-.6 5.55 5.55 0 0 0 2.12-1.78 11.38 11.38 0 0 0 1.24-2.27 24.93 24.93 0 0 0 1.05-3.22c.39-1.47.69-2.78.89-3.92a17.73 17.73 0 0 0 .31-2.94 4.36 4.36 0 0 0-1.34-3.48 6.1 6.1 0 0 0-4-1.13ZM1063.88 150.87l10.37-45.39h32q5.48 0 7.5 1.91t2 6.65q0 6.83-3.13 10.42t-9.32 3.87q4.57.24 6.62 2.13t2 5.89a19.18 19.18 0 0 1-.73 5.31 12.76 12.76 0 0 1-2 4.26 10.61 10.61 0 0 1-5 3.83q-3.06 1.13-9.4 1.12Zm18.72-10.73h7.4a5.36 5.36 0 0 0 3.86-1.32 4.65 4.65 0 0 0 1.39-3.57 2.35 2.35 0 0 0-.81-2 4.85 4.85 0 0 0-2.78-.6h-7.31Zm3.49-15.27h6.73a6.37 6.37 0 0 0 4-1.05 3.73 3.73 0 0 0 1.34-3.13 2.48 2.48 0 0 0-.74-2.06 5.45 5.45 0 0 0-3-.56h-6.81ZM1115.91 138.23c3.32.55 6.21 1 8.69 1.21s4.69.37 6.65.37a21 21 0 0 0 6.33-.63 2.25 2.25 0 0 0 1.66-2.23 2 2 0 0 0-.56-1.6 2.78 2.78 0 0 0-1.86-.49q-1.86 0-4 .06h-.74q-7.36 0-10.28-2.33c-1.94-1.55-2.92-4.19-2.92-7.93a26.29 26.29 0 0 1 1.43-8.5 20.58 20.58 0 0 1 3.8-7 12.8 12.8 0 0 1 6.45-3.79 47 47 0 0 1 11.86-1.16q4.93 0 10.26.49t10.9 1.48l-3.23 14.4c-2.41-.55-4.67-1-6.76-1.27a44.56 44.56 0 0 0-5.85-.43q-6.13 0-8.39.72c-1.5.47-2.26 1.29-2.26 2.44a1.66 1.66 0 0 0 .64 1.51 8.34 8.34 0 0 0 3.41.4h6.27q5.52 0 8 2.18c1.68 1.45 2.51 3.76 2.51 6.92a26.88 26.88 0 0 1-1.19 8.17 16 16 0 0 1-3.34 6 13.55 13.55 0 0 1-6.35 3.82 37.13 37.13 0 0 1-10.41 1.19 112.49 112.49 0 0 1-11.48-.59q-5.87-.6-11.87-1.79ZM1160 150.87l10.37-45.39h38.71l-3.34 14.52h-22.28l-1 4.57h22.29l-2.24 9.72h-22.24l-1 4.59h22.28l-2.77 12ZM1205.28 150.87l10.37-45.39h30.94q4.64 0 6.88 2.51t2.24 7.69q0 8.11-3.48 12.21t-10.3 4.1h-.93l11 18.88h-19.56l-5.12-10.44c-.36-.69-.7-1.44-1-2.25s-.72-1.8-1.16-3l-.15.8c-.56 2.9-.88 4.5-1 4.8l-2.29 10.08Zm21.75-23h5.43q3.61 0 5.24-1.45t1.63-4.61a3.3 3.3 0 0 0-.86-2.55 4.08 4.08 0 0 0-2.78-.79h-6.47ZM1259.48 150.87l.15-45.39H1276l-1.3 25.11c-.1 2-.21 3.78-.32 5.42s-.23 3.17-.37 4.6c.8-2.36 1.76-5.06 2.88-8.08.17-.46.29-.77.35-.95l9.71-26.1h17.93l-20.76 45.39ZM1298.29 150.87l10.37-45.39h38.71L1344 120h-22.28l-1 4.57H1343l-2.24 9.72h-22.24l-1 4.59h22.28l-2.77 12ZM1343.57 150.87l10.37-45.39h30.94q4.63 0 6.88 2.51t2.24 7.69q0 8.11-3.48 12.21t-10.3 4.1h-.89l11 18.88h-19.53l-5.12-10.44c-.36-.69-.7-1.44-1-2.25s-.72-1.8-1.16-3l-.15.8c-.56 2.9-.88 4.5-.95 4.8l-2.29 10.08Zm21.75-23h5.43q3.62 0 5.24-1.45t1.63-4.61a3.3 3.3 0 0 0-.86-2.55 4.08 4.08 0 0 0-2.78-.79h-6.47ZM615.53 213l10.37-45.4h38.33l-3.49 15.09H639l-1 4.71h21.75l-3.19 13.6h-21.7l-2.75 12ZM659.77 213l10.37-45.39h16.7L676.45 213ZM724.08 211.65a95.62 95.62 0 0 1-10.25 2 67 67 0 0 1-9.21.67q-9.66 0-14.14-3.49t-4.48-11c0-1 .06-2.17.18-3.41s.3-2.61.54-4.11a67.12 67.12 0 0 1 2.07-8.9 35.28 35.28 0 0 1 2.79-6.75 24 24 0 0 1 4.42-5.86 12.79 12.79 0 0 1 5.13-3 35 35 0 0 1 5.63-1.16 50.34 50.34 0 0 1 6.47-.39 70.87 70.87 0 0 1 9.77.75 90.39 90.39 0 0 1 10.51 2.18l-3.14 13.72q-4.32-.6-7.59-.88t-5.78-.28a22.48 22.48 0 0 0-6.36.73 8 8 0 0 0-3.85 2.34 15 15 0 0 0-2.78 5.31 21.38 21.38 0 0 0-1.19 6.71 6.25 6.25 0 0 0 1.36 4.46 5.81 5.81 0 0 0 4.34 1.41h.68l.44-.05 2.7-11.65h16.42ZM739.51 167.6H756l-6.47 28.24c-.15.66-.27 1.23-.34 1.72a7.57 7.57 0 0 0-.12 1.15 2.84 2.84 0 0 0 3.21 3.22 4.31 4.31 0 0 0 3.34-1.4 9.78 9.78 0 0 0 1.93-4.45L764 167.6h16.56L774 196.2a51.48 51.48 0 0 1-2.55 8.84 13 13 0 0 1-2.8 4.17 17.32 17.32 0 0 1-7.25 3.79 42.14 42.14 0 0 1-11.09 1.23c-6.52 0-11.23-.84-14.12-2.55s-4.34-4.42-4.34-8.18a21.43 21.43 0 0 1 .25-3.15c.17-1.14.48-2.69.94-4.64ZM777.08 213l10.36-45.39h30.95c3.08 0 5.38.84 6.87 2.51s2.24 4.23 2.24 7.69q0 8.12-3.47 12.21t-10.31 4.1h-.89l11 18.88H804.3l-5.12-10.44c-.35-.69-.7-1.44-1-2.25s-.72-1.8-1.16-3l-.15.8c-.56 2.9-.88 4.5-.94 4.8L793.6 213Zm21.75-23h5.42q3.62 0 5.25-1.45a5.89 5.89 0 0 0 1.63-4.61 3.3 3.3 0 0 0-.87-2.55 4.08 4.08 0 0 0-2.78-.79H801ZM825.75 213l10.36-45.39h38.71l-3.33 14.49H849.2l-1 4.57h22.28l-2.24 9.72H846l-1.08 4.61h22.29l-2.78 12ZM894.18 213l10.36-45.39h38.33l-3.49 15.09h-21.75l-1 4.71h21.75L935.21 201h-21.7l-2.75 12ZM940.81 199.48c0-1 .05-2.11.15-3.25s.26-2.32.46-3.58a73.86 73.86 0 0 1 2.16-9.32 33.09 33.09 0 0 1 2.81-6.75 24.45 24.45 0 0 1 4.51-5.76 14.56 14.56 0 0 1 5.24-3.1 31.61 31.61 0 0 1 5.6-1.19 53.67 53.67 0 0 1 6.8-.39 43.72 43.72 0 0 1 9.46.86 18.85 18.85 0 0 1 6.53 2.75 8.93 8.93 0 0 1 3.31 4.47 21.93 21.93 0 0 1 1.07 7.49 43.23 43.23 0 0 1-.34 5.36 51.86 51.86 0 0 1-1.06 5.76 49.54 49.54 0 0 1-2.66 8.34 30.82 30.82 0 0 1-3.76 6.57 15 15 0 0 1-7.33 5.09q-4.63 1.56-12.71 1.56-11.07 0-15.65-3.4t-4.59-11.51Zm25.24-17.39a6.35 6.35 0 0 0-3.25.82 6.22 6.22 0 0 0-2.28 2.47 26.18 26.18 0 0 0-2.14 5.86 25.86 25.86 0 0 0-.89 6.18 3.48 3.48 0 0 0 1.39 3 7.93 7.93 0 0 0 6.94.43 5.45 5.45 0 0 0 2.11-1.78 11.4 11.4 0 0 0 1.25-2.27 24.93 24.93 0 0 0 1.05-3.22c.39-1.47.68-2.78.89-3.92a17.59 17.59 0 0 0 .3-2.94 4.35 4.35 0 0 0-1.33-3.48 6.12 6.12 0 0 0-4.04-1.15ZM998.19 167.6h16.48l-6.47 28.24c-.15.66-.27 1.23-.34 1.72a7.57 7.57 0 0 0-.12 1.15 2.84 2.84 0 0 0 3.21 3.22 4.33 4.33 0 0 0 3.34-1.4 9.78 9.78 0 0 0 1.93-4.45l6.47-28.48h16.55l-6.59 28.6a52.42 52.42 0 0 1-2.55 8.84 13 13 0 0 1-2.8 4.17 17.32 17.32 0 0 1-7.22 3.83 42.14 42.14 0 0 1-11.09 1.23c-6.52 0-11.23-.84-14.12-2.55s-4.35-4.42-4.35-8.18a21.52 21.52 0 0 1 .26-3.15c.17-1.14.48-2.69.94-4.64ZM1035.75 213l10.37-45.39h30.94q4.64 0 6.88 2.51t2.24 7.69q0 8.12-3.48 12.21t-10.3 4.1h-.89l11 18.88H1063l-5.12-10.44c-.36-.69-.7-1.44-1-2.25s-.72-1.8-1.16-3l-.15.8c-.56 2.9-.88 4.5-1 4.8l-2.29 10.09Zm21.75-23h5.43q3.61 0 5.25-1.45t1.62-4.61a3.3 3.3 0 0 0-.86-2.55 4.08 4.08 0 0 0-2.78-.79h-6.47ZM1110 199.48c0-1 0-2.11.15-3.25s.26-2.32.46-3.58a73.86 73.86 0 0 1 2.16-9.32 33.09 33.09 0 0 1 2.81-6.75 24.7 24.7 0 0 1 4.5-5.76 14.68 14.68 0 0 1 5.25-3.1 31.61 31.61 0 0 1 5.6-1.19 53.67 53.67 0 0 1 6.8-.39 43.72 43.72 0 0 1 9.44.86 18.85 18.85 0 0 1 6.53 2.75 8.93 8.93 0 0 1 3.31 4.47 21.93 21.93 0 0 1 1.07 7.49 43.23 43.23 0 0 1-.34 5.36 51.86 51.86 0 0 1-1.06 5.76 49.54 49.54 0 0 1-2.66 8.34 30.82 30.82 0 0 1-3.76 6.57 15 15 0 0 1-7.33 5.09q-4.64 1.56-12.71 1.56-11.07 0-15.65-3.4t-4.57-11.51Zm25.24-17.39a6.35 6.35 0 0 0-3.25.82 6.22 6.22 0 0 0-2.28 2.47 26.18 26.18 0 0 0-2.14 5.86 25.86 25.86 0 0 0-.89 6.18 3.48 3.48 0 0 0 1.39 3 7.93 7.93 0 0 0 6.94.43 5.45 5.45 0 0 0 2.11-1.78 11.4 11.4 0 0 0 1.25-2.27 24.93 24.93 0 0 0 1-3.22c.39-1.47.68-2.78.89-3.92a17.59 17.59 0 0 0 .3-2.94 4.35 4.35 0 0 0-1.33-3.48 6.12 6.12 0 0 0-3.97-1.15ZM1157.44 213l10.37-45.39h18.41l2.77 19.62c.06.4.16 1.24.31 2.52s.36 3 .61 5.18c.31-1.85.77-4.19 1.4-7 .11-.48.18-.82.23-1l4.46-19.33h16.12L1201.7 213h-18.23l-3.36-17.41q-.25-1.35-.6-3.27c-.23-1.28-.46-2.65-.7-4.1q-.46 3.25-1.45 7.54v.09l-4 17.15ZM1208.81 213l10.37-45.39h16.63l-6.73 29.39H1245l-3.67 16ZM1245.69 213l10.36-45.39h16.71L1262.37 213ZM1269.48 213l10.36-45.39h18.41l2.78 19.62c0 .4.15 1.24.31 2.52s.35 3 .61 5.18q.45-2.78 1.4-7c.1-.48.18-.82.23-1l4.42-19.33h16.12l-10.38 45.4h-18.24l-3.36-17.41q-.26-1.35-.6-3.27c-.23-1.28-.46-2.65-.7-4.1-.3 2.17-.79 4.68-1.45 7.54v.09l-4 17.15ZM1320.84 213l10.37-45.39h38.71l-3.34 14.49h-22.28l-1 4.57h22.28l-2.24 9.72h-22.23l-1 4.59h22.29l-2.78 12ZM648.34 275.11l6-26.16h14.34c1.14 0 2.14.05 3 .13a8.53 8.53 0 0 1 1.86.34 5.34 5.34 0 0 1 2.91 2.4 9.76 9.76 0 0 1 .88 4.56 23.2 23.2 0 0 1-.17 2.61c-.11 1-.28 2-.49 3.09a41.7 41.7 0 0 1-1.25 4.76 16.68 16.68 0 0 1-1.5 3.37 11.57 11.57 0 0 1-2.33 2.85 7.63 7.63 0 0 1-2.81 1.52 14.34 14.34 0 0 1-2.13.43 20.7 20.7 0 0 1-2.49.14h-2.14Zm11.14-7.25h1.69a9.1 9.1 0 0 0 2.67-.3 3 3 0 0 0 1.46-1 9.67 9.67 0 0 0 1.39-2.9 11.44 11.44 0 0 0 .56-3.39 3 3 0 0 0-.65-2.22 3.87 3.87 0 0 0-2.54-.6h-2.2ZM674.32 275.11 687.65 249h16l-.11 26.16h-9.3v-3.8h-7.48l-1.89 3.8Zm15.25-10.28h4.93l.09-9.71ZM707.4 275.11l.09-26.16h9.41l-.75 14.47q-.09 1.71-.18 3.12c-.06.95-.14 1.83-.21 2.66.46-1.36 1-2.92 1.66-4.66.09-.26.16-.45.2-.55l5.59-15h10.34l-12 26.16ZM729.77 275.11l6-26.16h22.31l-1.93 8.35h-12.86l-.6 2.64h12.84l-1.29 5.6h-12.81l-.6 2.65h12.84l-1.6 6.92ZM781.64 259.94c-.16 1-.33 1.87-.5 2.71s-.32 1.6-.48 2.29l-2.32 10.17h-9.07l6-26.16h12.45l.28 9.63v3.17c0 .4 0 .81-.05 1.25.15-.41.34-.86.57-1.37s.52-1.13.88-1.87l5.32-10.76h12.79l-6 26.16h-9l2.43-10.77c0-.17.12-.51.25-1s.41-1.57.82-3.14l-.48.94c-.76 1.51-1.31 2.56-1.64 3.17l-5.93 10.84h-5.17l-.79-10.37q-.06-.61-.12-1.65c-.1-.68-.16-1.77-.24-3.24ZM805.67 275.11l6-26.16H834l-2 8.35h-12.81l-.6 2.64h12.84l-1.29 5.6h-12.81l-.61 2.65h12.85l-1.6 6.92ZM831.77 275.11l6-26.16h9.58l-3.87 17h9.14l-2.11 9.19Z" class="cls-4"/><path d="m866.33 257.55-4 17.56h-9.6l4-17.56h-6.14l2-8.6h21.52l-2 8.6ZM870.56 275.11l1.86-8.09 9-7.36c.3-.24.62-.48 1-.73s.76-.51 1.22-.78h-10.22l2.1-9.2h22.28l-2 8.8-9.38 7.75a11.25 11.25 0 0 1-.95.7c-.36.25-.79.52-1.28.82h10.29l-1.84 8.09ZM895.73 275.11l6-26.16H924l-1.92 8.35h-12.83l-.6 2.64h12.84l-1.29 5.6h-12.81l-.61 2.65h12.85l-1.6 6.92ZM921.83 275.11l6-26.16h17.83a5 5 0 0 1 4 1.45 6.49 6.49 0 0 1 1.29 4.43c0 3.12-.67 5.46-2 7a7.38 7.38 0 0 1-5.94 2.36h-.52l6.36 10.88h-11.33l-2.95-6c-.21-.4-.41-.84-.6-1.3s-.41-1-.66-1.73l-.09.47c-.33 1.67-.51 2.59-.55 2.76l-1.32 5.81Zm12.53-13.27h3.13a4.5 4.5 0 0 0 3-.83 3.38 3.38 0 0 0 .94-2.66 1.93 1.93 0 0 0-.5-1.47 2.34 2.34 0 0 0-1.6-.45h-3.73ZM1003.24 275.11l6-26.16h18.43c2.11 0 3.55.37 4.32 1.1s1.17 2 1.17 3.84a8.89 8.89 0 0 1-1.8 6 7.24 7.24 0 0 1-5.38 2.23 6 6 0 0 1 3.82 1.23 4.44 4.44 0 0 1 1.17 3.39 11.47 11.47 0 0 1-.41 3.06 7.4 7.4 0 0 1-1.16 2.46 6.18 6.18 0 0 1-2.9 2.21 16.92 16.92 0 0 1-5.42.64Zm10.79-6.19h4.24a3.15 3.15 0 0 0 2.23-.75 2.73 2.73 0 0 0 .8-2.07 1.36 1.36 0 0 0-.47-1.16 2.81 2.81 0 0 0-1.6-.35H1015Zm2-8.8h3.88a3.66 3.66 0 0 0 2.29-.6 2.12 2.12 0 0 0 .77-1.8 1.44 1.44 0 0 0-.42-1.19 3.09 3.09 0 0 0-1.73-.32h-3.92ZM1032.19 275.11l6-26.16H1056a5 5 0 0 1 4 1.45 6.49 6.49 0 0 1 1.29 4.43c0 3.12-.67 5.46-2 7a7.38 7.38 0 0 1-5.94 2.36h-.52l6.36 10.88h-11.27l-3-6c-.21-.4-.41-.84-.6-1.3s-.41-1-.66-1.73l-.09.47c-.33 1.67-.51 2.59-.55 2.76l-1.32 5.81Zm12.53-13.27h3.13a4.5 4.5 0 0 0 3-.83 3.38 3.38 0 0 0 .94-2.66 1.93 1.93 0 0 0-.5-1.47 2.34 2.34 0 0 0-1.6-.45H1046ZM1062.73 275.11l3.61-6.12-4.3-20h10.07l1 8.39c.08.68.13 1.32.17 1.92s.06 1.19.06 1.74c.26-.8.5-1.49.73-2.07a12.66 12.66 0 0 1 .73-1.56l4.44-8.42h10.64l-16 26.16ZM1081.65 275.11 1095 249h16l-.12 26.16h-9.29v-3.8h-7.48l-1.9 3.8Zm15.25-10.28h4.93l.09-9.71ZM1112.62 275.11l6-26.16h10.62l1.6 11.31c0 .23.08.72.17 1.45s.21 1.74.35 3c.18-1.07.45-2.42.81-4 .06-.28.1-.48.13-.6l2.56-11.11h9.29l-6 26.16h-10.51l-1.94-10c-.09-.51-.21-1.14-.34-1.88s-.27-1.52-.4-2.36q-.27 1.88-.84 4.35v.05l-2.32 9.88ZM1153.54 275.11l13.33-26.11h16l-.12 26.16h-9.29v-3.8H1166l-1.9 3.8Zm15.25-10.28h4.93l.09-9.71ZM1184.51 275.11l6-26.16h9.59l-3.88 17h9.15l-2.12 9.19ZM1205.35 275.11l.09-26.16h9.41l-.75 14.47q-.09 1.71-.18 3.12c-.07.95-.14 1.83-.22 2.66.46-1.36 1-2.92 1.66-4.66l.21-.55 5.59-15h10.33l-12 26.16ZM1224.48 275.11 1237.8 249h16l-.12 26.16h-9.29v-3.8h-7.49l-1.89 3.8Zm15.25-10.28h4.93l.09-9.71ZM1255.45 275.11l6-26.16h17.83a5 5 0 0 1 4 1.45 6.49 6.49 0 0 1 1.29 4.43c0 3.12-.67 5.46-2 7a7.34 7.34 0 0 1-5.93 2.36h-.52l6.36 10.88h-11.27l-3-6c-.21-.4-.41-.84-.6-1.3s-.41-1-.67-1.73l-.08.47c-.33 1.67-.51 2.59-.55 2.76l-1.32 5.81Zm12.55-13.27h3.13a4.52 4.52 0 0 0 3-.83 3.38 3.38 0 0 0 .94-2.66 1.93 1.93 0 0 0-.5-1.47 2.35 2.35 0 0 0-1.6-.45h-3.73ZM1283.5 275.11l6-26.16h22.31l-1.92 8.35H1297l-.6 2.64h12.84l-1.29 5.6h-12.81l-.6 2.65h12.84l-1.6 6.92ZM1309.46 275.11l1.86-8.09 9-7.36c.3-.24.62-.48 1-.73s.76-.51 1.22-.78h-10.16l2.1-9.2h22.28l-2 8.8-9.38 7.75a11.25 11.25 0 0 1-1 .7c-.36.25-.79.52-1.28.82h10.29l-1.84 8.09Z" class="cls-4"/></g></svg>