<?xml version="1.0" encoding="UTF-8"?>
<svg id="Assets" xmlns="http://www.w3.org/2000/svg" viewBox="0 0 721.3 200">
  <defs>
    <style>
      .cls-1 {
        fill: #b40002;
      }

      .cls-1, .cls-2 {
        stroke-width: 0px;
      }

      .cls-2 {
        fill: #fff;
      }
    </style>
  </defs>
  <polygon class="cls-1" points="686.04 200 0 200 5.37 169.53 691.41 169.53 686.04 200"/>
  <g>
    <path class="cls-2" d="m108.1,26.62l-17.62,99.9c-2.72,15.43-17.24,27.77-32.67,27.77H8.06L35.27,0h49.76c15.43,0,25.8,11.19,23.08,26.62Zm-48.07,97.59l16.56-93.92c.37-2.12-.26-2.89-2.19-2.89h-13.11l-17.55,99.52h13.11c1.93,0,2.84-.77,3.18-2.7Z"/>
    <path class="cls-2" d="m133.82,123.63l-9.07,30.67h-30.86L143.08,6.56c1.12-3.09,5.4-6.56,9.45-6.56h33.94c4.05,0,7.14,3.28,7.14,6.56l-2.71,147.73h-30.86l1.74-30.67h-27.97Zm32.94-89.49c.25-2.51,0-3.28-.96-3.28h-3.28c-.77,0-1.49.77-2.12,3.28l-17.47,58.63h20.64l3.2-58.63Z"/>
    <path class="cls-2" d="m232.36,154.29h-30.86L228.71,0h30.86l-27.21,154.29Z"/>
    <path class="cls-2" d="m284.28,123.43h34.91l-5.44,30.86h-65.38L275.57,0h30.47l-21.76,123.43Z"/>
    <path class="cls-2" d="m387.89,105.69c-1.77,3.47-5.39,5.4-10.5,5.98l-7.52,42.62h-30.67l7.52-42.62c-4.37-.39-8.31-2.12-8.59-5.98L332.08,0h31.63l-.7,82.74c.07,2.89.28,3.86,1.06,3.86h4.24c.96,0,1.71-.96,2.61-3.86L398.43,0h30.86l-41.39,105.69Z"/>
    <path class="cls-2" d="m537.24,26.62l-17.62,99.9c-2.72,15.43-17.24,27.77-32.67,27.77h-49.76L464.4,0h49.76c15.43,0,25.8,11.19,23.08,26.62Zm-48.07,97.59l16.56-93.92c.37-2.12-.26-2.89-2.19-2.89h-13.11l-17.55,99.52h13.11c1.93,0,2.84-.77,3.18-2.7Z"/>
    <path class="cls-2" d="m628.66,26.62l-17.62,99.9c-2.72,15.43-17.24,27.77-32.67,27.77h-49.76L555.82,0h49.76c15.43,0,25.8,11.19,23.08,26.62Zm-48.07,97.59l16.56-93.92c.37-2.12-.26-2.89-2.19-2.89h-13.11l-17.55,99.52h13.11c1.93,0,2.84-.77,3.18-2.7Z"/>
    <path class="cls-2" d="m639.72,0h81.58l-5.44,30.86h-25.27l-21.76,123.43h-30.86l21.76-123.43h-25.46l5.44-30.86Z"/>
  </g>
</svg>